<?xml version="1.0" encoding="UTF-8" ?>
<!DOCTYPE svg PUBLIC "-//W3C//DTD SVG 1.1//EN" "http://www.w3.org/Graphics/SVG/1.1/DTD/svg11.dtd">
<svg width="360pt" height="360pt" viewBox="0 0 360 360" version="1.1" xmlns="http://www.w3.org/2000/svg">
<g id="#008affff">
<path fill="#008aff" opacity="1.00" d=" M 93.32 5.30 C 99.24 -0.79 109.81 -0.68 115.89 5.12 C 120.26 9.07 121.67 15.29 121.34 20.97 C 121.24 93.58 121.37 166.18 121.28 238.79 C 191.85 238.74 262.42 238.79 333.00 238.76 C 338.09 238.76 343.34 238.43 348.25 240.07 C 353.36 241.95 357.24 246.56 358.75 251.73 C 360.48 257.51 358.45 264.00 354.17 268.15 C 326.31 295.96 298.46 323.78 270.67 351.67 C 267.40 355.35 263.35 358.25 258.74 360.00 L 15.01 360.00 C 11.76 358.81 8.38 357.60 5.83 355.16 C 2.95 352.62 1.62 348.92 0.00 345.56 L 0.00 103.15 C 1.39 96.98 5.59 92.17 10.73 88.75 C 25.88 74.23 40.09 58.75 54.99 43.99 C 67.77 31.09 80.55 18.21 93.32 5.30 M 36.42 110.37 C 35.27 111.74 33.33 112.89 33.61 114.94 C 33.65 177.47 33.50 240.00 33.68 302.53 C 41.23 295.80 48.23 288.51 55.25 281.25 C 62.37 275.01 68.36 267.64 75.42 261.34 C 79.50 257.35 83.67 253.38 87.22 248.90 C 87.65 236.95 87.27 224.96 87.40 213.00 C 87.32 161.71 87.56 110.42 87.28 59.14 C 69.84 75.71 53.28 93.21 36.42 110.37 M 90.30 293.30 C 84.22 298.90 78.79 305.14 72.83 310.86 C 67.99 316.06 62.63 320.77 58.02 326.18 C 120.69 326.56 183.38 326.24 246.06 326.34 C 248.12 326.72 249.39 324.93 250.75 323.73 C 264.50 309.83 278.45 296.11 292.23 282.23 C 295.28 279.16 298.58 276.29 301.08 272.73 C 294.39 272.35 287.69 272.63 281.00 272.55 C 227.34 272.55 173.67 272.55 120.00 272.54 C 117.05 272.60 114.07 272.33 111.13 272.75 C 103.65 279.03 97.37 286.58 90.30 293.30 Z" />
</g>
</svg>
